<mxfile host="app.diagrams.net" agent="Mozilla/5.0 (Windows NT 10.0; Win64; x64) AppleWebKit/537.36 (KHTML, like Gecko) Chrome/134.0.0.0 Safari/537.36" version="26.1.0">
  <diagram id="C5RBs43oDa-KdzZeNtuy" name="Page-1">
    <mxGraphModel dx="1004" dy="623" grid="1" gridSize="10" guides="1" tooltips="1" connect="1" arrows="1" fold="1" page="1" pageScale="1" pageWidth="827" pageHeight="1169" math="0" shadow="0">
      <root>
        <mxCell id="WIyWlLk6GJQsqaUBKTNV-0" />
        <mxCell id="WIyWlLk6GJQsqaUBKTNV-1" parent="WIyWlLk6GJQsqaUBKTNV-0" />
        <mxCell id="WIyWlLk6GJQsqaUBKTNV-2" value="" style="rounded=0;html=1;jettySize=auto;orthogonalLoop=1;fontSize=11;endArrow=classic;endFill=1;strokeWidth=1;shadow=0;labelBackgroundColor=none;edgeStyle=orthogonalEdgeStyle;exitX=0.5;exitY=1;exitDx=0;exitDy=0;" parent="WIyWlLk6GJQsqaUBKTNV-1" source="e0IcmRbNhsJ9LbPKQhqD-0" target="WIyWlLk6GJQsqaUBKTNV-6" edge="1">
          <mxGeometry relative="1" as="geometry">
            <mxPoint x="169" y="207" as="sourcePoint" />
          </mxGeometry>
        </mxCell>
        <mxCell id="e0IcmRbNhsJ9LbPKQhqD-6" style="edgeStyle=orthogonalEdgeStyle;rounded=0;orthogonalLoop=1;jettySize=auto;html=1;exitX=0.5;exitY=1;exitDx=0;exitDy=0;entryX=0.5;entryY=0;entryDx=0;entryDy=0;" parent="WIyWlLk6GJQsqaUBKTNV-1" source="WIyWlLk6GJQsqaUBKTNV-6" edge="1">
          <mxGeometry relative="1" as="geometry">
            <mxPoint x="179" y="380" as="targetPoint" />
          </mxGeometry>
        </mxCell>
        <mxCell id="fpDgBBtRukdDoOmINO04-0" style="edgeStyle=orthogonalEdgeStyle;rounded=0;orthogonalLoop=1;jettySize=auto;html=1;exitX=0;exitY=0.5;exitDx=0;exitDy=0;" edge="1" parent="WIyWlLk6GJQsqaUBKTNV-1" source="WIyWlLk6GJQsqaUBKTNV-6">
          <mxGeometry relative="1" as="geometry">
            <mxPoint x="180" y="1170" as="targetPoint" />
            <mxPoint x="50" y="290" as="sourcePoint" />
            <Array as="points">
              <mxPoint x="100" y="290" />
              <mxPoint x="100" y="1170" />
            </Array>
          </mxGeometry>
        </mxCell>
        <mxCell id="WIyWlLk6GJQsqaUBKTNV-6" value="Is it exit?" style="rhombus;whiteSpace=wrap;html=1;shadow=0;fontFamily=Helvetica;fontSize=12;align=center;strokeWidth=1;spacing=6;spacingTop=-4;" parent="WIyWlLk6GJQsqaUBKTNV-1" vertex="1">
          <mxGeometry x="129" y="250" width="100" height="80" as="geometry" />
        </mxCell>
        <mxCell id="e0IcmRbNhsJ9LbPKQhqD-0" value="Enter operation" style="shape=parallelogram;perimeter=parallelogramPerimeter;whiteSpace=wrap;html=1;fixedSize=1;" parent="WIyWlLk6GJQsqaUBKTNV-1" vertex="1">
          <mxGeometry x="119" y="147" width="120" height="60" as="geometry" />
        </mxCell>
        <mxCell id="e0IcmRbNhsJ9LbPKQhqD-9" style="edgeStyle=orthogonalEdgeStyle;rounded=0;orthogonalLoop=1;jettySize=auto;html=1;exitX=0.5;exitY=1;exitDx=0;exitDy=0;entryX=0.5;entryY=0;entryDx=0;entryDy=0;" parent="WIyWlLk6GJQsqaUBKTNV-1" source="e0IcmRbNhsJ9LbPKQhqD-2" target="e0IcmRbNhsJ9LbPKQhqD-0" edge="1">
          <mxGeometry relative="1" as="geometry" />
        </mxCell>
        <mxCell id="e0IcmRbNhsJ9LbPKQhqD-2" value="Start" style="rounded=1;whiteSpace=wrap;html=1;arcSize=50;" parent="WIyWlLk6GJQsqaUBKTNV-1" vertex="1">
          <mxGeometry x="119" y="80" width="120" height="30" as="geometry" />
        </mxCell>
        <mxCell id="e0IcmRbNhsJ9LbPKQhqD-4" value="End" style="rounded=1;whiteSpace=wrap;html=1;arcSize=50;" parent="WIyWlLk6GJQsqaUBKTNV-1" vertex="1">
          <mxGeometry x="119" y="1190" width="120" height="30" as="geometry" />
        </mxCell>
        <mxCell id="e0IcmRbNhsJ9LbPKQhqD-7" value="No" style="text;html=1;align=center;verticalAlign=middle;resizable=0;points=[];autosize=1;strokeColor=none;fillColor=none;" parent="WIyWlLk6GJQsqaUBKTNV-1" vertex="1">
          <mxGeometry x="169" y="338" width="40" height="30" as="geometry" />
        </mxCell>
        <mxCell id="fpDgBBtRukdDoOmINO04-4" style="edgeStyle=orthogonalEdgeStyle;rounded=0;orthogonalLoop=1;jettySize=auto;html=1;exitX=0.5;exitY=1;exitDx=0;exitDy=0;entryX=0.5;entryY=0;entryDx=0;entryDy=0;" edge="1" parent="WIyWlLk6GJQsqaUBKTNV-1" source="e0IcmRbNhsJ9LbPKQhqD-8" target="fpDgBBtRukdDoOmINO04-3">
          <mxGeometry relative="1" as="geometry" />
        </mxCell>
        <mxCell id="e0IcmRbNhsJ9LbPKQhqD-8" value="Is operation&amp;nbsp;&lt;div&gt;+ or - or * or /?&lt;/div&gt;" style="rhombus;whiteSpace=wrap;html=1;shadow=0;fontFamily=Helvetica;fontSize=12;align=center;strokeWidth=1;spacing=6;spacingTop=-4;" parent="WIyWlLk6GJQsqaUBKTNV-1" vertex="1">
          <mxGeometry x="129" y="380" width="100" height="80" as="geometry" />
        </mxCell>
        <mxCell id="e0IcmRbNhsJ9LbPKQhqD-26" style="edgeStyle=orthogonalEdgeStyle;rounded=0;orthogonalLoop=1;jettySize=auto;html=1;exitX=0.5;exitY=1;exitDx=0;exitDy=0;" parent="WIyWlLk6GJQsqaUBKTNV-1" source="fpDgBBtRukdDoOmINO04-18" edge="1">
          <mxGeometry relative="1" as="geometry">
            <mxPoint x="720" y="1039" as="sourcePoint" />
            <mxPoint x="180" y="126.66666666666667" as="targetPoint" />
            <Array as="points">
              <mxPoint x="720" y="1060" />
              <mxPoint x="790" y="1060" />
              <mxPoint x="790" y="127" />
            </Array>
          </mxGeometry>
        </mxCell>
        <mxCell id="e0IcmRbNhsJ9LbPKQhqD-34" value="No" style="text;html=1;align=center;verticalAlign=middle;resizable=0;points=[];autosize=1;strokeColor=none;fillColor=none;" parent="WIyWlLk6GJQsqaUBKTNV-1" vertex="1">
          <mxGeometry x="229" y="590" width="40" height="30" as="geometry" />
        </mxCell>
        <mxCell id="e0IcmRbNhsJ9LbPKQhqD-36" value="Yes" style="text;html=1;align=center;verticalAlign=middle;resizable=0;points=[];autosize=1;strokeColor=none;fillColor=none;" parent="WIyWlLk6GJQsqaUBKTNV-1" vertex="1">
          <mxGeometry x="79" y="250" width="40" height="30" as="geometry" />
        </mxCell>
        <mxCell id="e0IcmRbNhsJ9LbPKQhqD-38" value="Yes" style="text;html=1;align=center;verticalAlign=middle;resizable=0;points=[];autosize=1;strokeColor=none;fillColor=none;" parent="WIyWlLk6GJQsqaUBKTNV-1" vertex="1">
          <mxGeometry x="189" y="460" width="40" height="30" as="geometry" />
        </mxCell>
        <mxCell id="CQwbwxp5en_i5ur888Y7-20" style="edgeStyle=orthogonalEdgeStyle;rounded=0;orthogonalLoop=1;jettySize=auto;html=1;exitX=0.5;exitY=1;exitDx=0;exitDy=0;entryX=0.004;entryY=0.997;entryDx=0;entryDy=0;entryPerimeter=0;" parent="WIyWlLk6GJQsqaUBKTNV-1" source="CQwbwxp5en_i5ur888Y7-0" target="CQwbwxp5en_i5ur888Y7-25" edge="1">
          <mxGeometry relative="1" as="geometry">
            <mxPoint x="179" y="775" as="targetPoint" />
          </mxGeometry>
        </mxCell>
        <mxCell id="CQwbwxp5en_i5ur888Y7-32" style="edgeStyle=orthogonalEdgeStyle;rounded=0;orthogonalLoop=1;jettySize=auto;html=1;exitX=1;exitY=0.5;exitDx=0;exitDy=0;" parent="WIyWlLk6GJQsqaUBKTNV-1" source="CQwbwxp5en_i5ur888Y7-0" edge="1">
          <mxGeometry relative="1" as="geometry">
            <mxPoint x="270" y="130" as="targetPoint" />
          </mxGeometry>
        </mxCell>
        <mxCell id="CQwbwxp5en_i5ur888Y7-0" value="Is input_numbers numbers?" style="rhombus;whiteSpace=wrap;html=1;shadow=0;fontFamily=Helvetica;fontSize=12;align=center;strokeWidth=1;spacing=6;spacingTop=-4;" parent="WIyWlLk6GJQsqaUBKTNV-1" vertex="1">
          <mxGeometry x="129" y="580" width="100" height="80" as="geometry" />
        </mxCell>
        <mxCell id="CQwbwxp5en_i5ur888Y7-16" value="No" style="text;html=1;align=center;verticalAlign=middle;resizable=0;points=[];autosize=1;strokeColor=none;fillColor=none;" parent="WIyWlLk6GJQsqaUBKTNV-1" vertex="1">
          <mxGeometry x="229" y="390" width="40" height="30" as="geometry" />
        </mxCell>
        <mxCell id="CQwbwxp5en_i5ur888Y7-25" value="Yes" style="text;html=1;align=center;verticalAlign=middle;resizable=0;points=[];autosize=1;strokeColor=none;fillColor=none;" parent="WIyWlLk6GJQsqaUBKTNV-1" vertex="1">
          <mxGeometry x="179" y="660" width="40" height="30" as="geometry" />
        </mxCell>
        <mxCell id="fpDgBBtRukdDoOmINO04-5" style="edgeStyle=orthogonalEdgeStyle;rounded=0;orthogonalLoop=1;jettySize=auto;html=1;exitX=0.5;exitY=1;exitDx=0;exitDy=0;entryX=0.5;entryY=0;entryDx=0;entryDy=0;" edge="1" parent="WIyWlLk6GJQsqaUBKTNV-1" source="fpDgBBtRukdDoOmINO04-3" target="CQwbwxp5en_i5ur888Y7-0">
          <mxGeometry relative="1" as="geometry" />
        </mxCell>
        <mxCell id="fpDgBBtRukdDoOmINO04-3" value="Enter numbers" style="shape=parallelogram;perimeter=parallelogramPerimeter;whiteSpace=wrap;html=1;fixedSize=1;" vertex="1" parent="WIyWlLk6GJQsqaUBKTNV-1">
          <mxGeometry x="119" y="490" width="120" height="60" as="geometry" />
        </mxCell>
        <mxCell id="fpDgBBtRukdDoOmINO04-7" style="edgeStyle=orthogonalEdgeStyle;rounded=0;orthogonalLoop=1;jettySize=auto;html=1;exitX=1;exitY=0.5;exitDx=0;exitDy=0;entryX=0.963;entryY=0.983;entryDx=0;entryDy=0;entryPerimeter=0;" edge="1" parent="WIyWlLk6GJQsqaUBKTNV-1" source="e0IcmRbNhsJ9LbPKQhqD-8" target="CQwbwxp5en_i5ur888Y7-16">
          <mxGeometry relative="1" as="geometry" />
        </mxCell>
        <mxCell id="fpDgBBtRukdDoOmINO04-37" style="edgeStyle=orthogonalEdgeStyle;rounded=0;orthogonalLoop=1;jettySize=auto;html=1;exitX=0.5;exitY=1;exitDx=0;exitDy=0;" edge="1" parent="WIyWlLk6GJQsqaUBKTNV-1" source="fpDgBBtRukdDoOmINO04-8">
          <mxGeometry relative="1" as="geometry">
            <mxPoint x="440" y="1080" as="targetPoint" />
          </mxGeometry>
        </mxCell>
        <mxCell id="fpDgBBtRukdDoOmINO04-8" value="Numbers er multiplied" style="rounded=0;whiteSpace=wrap;html=1;" vertex="1" parent="WIyWlLk6GJQsqaUBKTNV-1">
          <mxGeometry x="380" y="930" width="120" height="60" as="geometry" />
        </mxCell>
        <mxCell id="fpDgBBtRukdDoOmINO04-15" style="edgeStyle=orthogonalEdgeStyle;rounded=0;orthogonalLoop=1;jettySize=auto;html=1;exitX=1;exitY=0.5;exitDx=0;exitDy=0;entryX=0.5;entryY=0;entryDx=0;entryDy=0;" edge="1" parent="WIyWlLk6GJQsqaUBKTNV-1" source="fpDgBBtRukdDoOmINO04-9" target="fpDgBBtRukdDoOmINO04-10">
          <mxGeometry relative="1" as="geometry" />
        </mxCell>
        <mxCell id="fpDgBBtRukdDoOmINO04-42" style="edgeStyle=orthogonalEdgeStyle;rounded=0;orthogonalLoop=1;jettySize=auto;html=1;exitX=0.5;exitY=1;exitDx=0;exitDy=0;entryX=0.5;entryY=0;entryDx=0;entryDy=0;" edge="1" parent="WIyWlLk6GJQsqaUBKTNV-1" source="fpDgBBtRukdDoOmINO04-9" target="fpDgBBtRukdDoOmINO04-24">
          <mxGeometry relative="1" as="geometry" />
        </mxCell>
        <mxCell id="fpDgBBtRukdDoOmINO04-9" value="Is operation +?" style="rhombus;whiteSpace=wrap;html=1;shadow=0;fontFamily=Helvetica;fontSize=12;align=center;strokeWidth=1;spacing=6;spacingTop=-4;" vertex="1" parent="WIyWlLk6GJQsqaUBKTNV-1">
          <mxGeometry x="129" y="690" width="100" height="80" as="geometry" />
        </mxCell>
        <mxCell id="fpDgBBtRukdDoOmINO04-16" style="edgeStyle=orthogonalEdgeStyle;rounded=0;orthogonalLoop=1;jettySize=auto;html=1;exitX=1;exitY=0.5;exitDx=0;exitDy=0;entryX=0.5;entryY=0;entryDx=0;entryDy=0;" edge="1" parent="WIyWlLk6GJQsqaUBKTNV-1" source="fpDgBBtRukdDoOmINO04-10" target="fpDgBBtRukdDoOmINO04-11">
          <mxGeometry relative="1" as="geometry" />
        </mxCell>
        <mxCell id="fpDgBBtRukdDoOmINO04-39" style="edgeStyle=orthogonalEdgeStyle;rounded=0;orthogonalLoop=1;jettySize=auto;html=1;exitX=0.5;exitY=1;exitDx=0;exitDy=0;entryX=0.5;entryY=0;entryDx=0;entryDy=0;" edge="1" parent="WIyWlLk6GJQsqaUBKTNV-1" source="fpDgBBtRukdDoOmINO04-10" target="fpDgBBtRukdDoOmINO04-25">
          <mxGeometry relative="1" as="geometry" />
        </mxCell>
        <mxCell id="fpDgBBtRukdDoOmINO04-10" value="Is operation -?" style="rhombus;whiteSpace=wrap;html=1;shadow=0;fontFamily=Helvetica;fontSize=12;align=center;strokeWidth=1;spacing=6;spacingTop=-4;" vertex="1" parent="WIyWlLk6GJQsqaUBKTNV-1">
          <mxGeometry x="260" y="760" width="100" height="80" as="geometry" />
        </mxCell>
        <mxCell id="fpDgBBtRukdDoOmINO04-17" style="edgeStyle=orthogonalEdgeStyle;rounded=0;orthogonalLoop=1;jettySize=auto;html=1;exitX=1;exitY=0.5;exitDx=0;exitDy=0;entryX=0.5;entryY=0;entryDx=0;entryDy=0;" edge="1" parent="WIyWlLk6GJQsqaUBKTNV-1" source="fpDgBBtRukdDoOmINO04-11" target="fpDgBBtRukdDoOmINO04-14">
          <mxGeometry relative="1" as="geometry" />
        </mxCell>
        <mxCell id="fpDgBBtRukdDoOmINO04-11" value="Is operation *?" style="rhombus;whiteSpace=wrap;html=1;shadow=0;fontFamily=Helvetica;fontSize=12;align=center;strokeWidth=1;spacing=6;spacingTop=-4;" vertex="1" parent="WIyWlLk6GJQsqaUBKTNV-1">
          <mxGeometry x="390" y="830" width="100" height="80" as="geometry" />
        </mxCell>
        <mxCell id="fpDgBBtRukdDoOmINO04-36" style="edgeStyle=orthogonalEdgeStyle;rounded=0;orthogonalLoop=1;jettySize=auto;html=1;exitX=0.5;exitY=1;exitDx=0;exitDy=0;entryX=0.5;entryY=0;entryDx=0;entryDy=0;" edge="1" parent="WIyWlLk6GJQsqaUBKTNV-1" source="fpDgBBtRukdDoOmINO04-14" target="fpDgBBtRukdDoOmINO04-26">
          <mxGeometry relative="1" as="geometry" />
        </mxCell>
        <mxCell id="fpDgBBtRukdDoOmINO04-14" value="Is operation /?" style="rhombus;whiteSpace=wrap;html=1;shadow=0;fontFamily=Helvetica;fontSize=12;align=center;strokeWidth=1;spacing=6;spacingTop=-4;" vertex="1" parent="WIyWlLk6GJQsqaUBKTNV-1">
          <mxGeometry x="540" y="900" width="100" height="80" as="geometry" />
        </mxCell>
        <mxCell id="fpDgBBtRukdDoOmINO04-18" value="Invalid Operation" style="shape=parallelogram;perimeter=parallelogramPerimeter;whiteSpace=wrap;html=1;fixedSize=1;" vertex="1" parent="WIyWlLk6GJQsqaUBKTNV-1">
          <mxGeometry x="660" y="990" width="120" height="60" as="geometry" />
        </mxCell>
        <mxCell id="fpDgBBtRukdDoOmINO04-19" style="edgeStyle=orthogonalEdgeStyle;rounded=0;orthogonalLoop=1;jettySize=auto;html=1;exitX=1;exitY=0.5;exitDx=0;exitDy=0;entryX=0.563;entryY=-0.015;entryDx=0;entryDy=0;entryPerimeter=0;" edge="1" parent="WIyWlLk6GJQsqaUBKTNV-1" source="fpDgBBtRukdDoOmINO04-14" target="fpDgBBtRukdDoOmINO04-18">
          <mxGeometry relative="1" as="geometry" />
        </mxCell>
        <mxCell id="fpDgBBtRukdDoOmINO04-20" value="No" style="text;html=1;align=center;verticalAlign=middle;resizable=0;points=[];autosize=1;strokeColor=none;fillColor=none;" vertex="1" parent="WIyWlLk6GJQsqaUBKTNV-1">
          <mxGeometry x="640" y="898" width="40" height="30" as="geometry" />
        </mxCell>
        <mxCell id="fpDgBBtRukdDoOmINO04-21" value="No" style="text;html=1;align=center;verticalAlign=middle;resizable=0;points=[];autosize=1;strokeColor=none;fillColor=none;" vertex="1" parent="WIyWlLk6GJQsqaUBKTNV-1">
          <mxGeometry x="490" y="830" width="40" height="30" as="geometry" />
        </mxCell>
        <mxCell id="fpDgBBtRukdDoOmINO04-22" value="No" style="text;html=1;align=center;verticalAlign=middle;resizable=0;points=[];autosize=1;strokeColor=none;fillColor=none;" vertex="1" parent="WIyWlLk6GJQsqaUBKTNV-1">
          <mxGeometry x="360" y="760" width="40" height="30" as="geometry" />
        </mxCell>
        <mxCell id="fpDgBBtRukdDoOmINO04-23" value="No" style="text;html=1;align=center;verticalAlign=middle;resizable=0;points=[];autosize=1;strokeColor=none;fillColor=none;" vertex="1" parent="WIyWlLk6GJQsqaUBKTNV-1">
          <mxGeometry x="229" y="690" width="40" height="30" as="geometry" />
        </mxCell>
        <mxCell id="fpDgBBtRukdDoOmINO04-41" style="edgeStyle=orthogonalEdgeStyle;rounded=0;orthogonalLoop=1;jettySize=auto;html=1;exitX=0.5;exitY=1;exitDx=0;exitDy=0;entryX=0.5;entryY=0;entryDx=0;entryDy=0;" edge="1" parent="WIyWlLk6GJQsqaUBKTNV-1" source="fpDgBBtRukdDoOmINO04-24" target="fpDgBBtRukdDoOmINO04-27">
          <mxGeometry relative="1" as="geometry" />
        </mxCell>
        <mxCell id="fpDgBBtRukdDoOmINO04-24" value="Numbers are added&amp;nbsp;" style="rounded=0;whiteSpace=wrap;html=1;" vertex="1" parent="WIyWlLk6GJQsqaUBKTNV-1">
          <mxGeometry x="119" y="800" width="120" height="60" as="geometry" />
        </mxCell>
        <mxCell id="fpDgBBtRukdDoOmINO04-40" style="edgeStyle=orthogonalEdgeStyle;rounded=0;orthogonalLoop=1;jettySize=auto;html=1;exitX=0.5;exitY=1;exitDx=0;exitDy=0;" edge="1" parent="WIyWlLk6GJQsqaUBKTNV-1" source="fpDgBBtRukdDoOmINO04-25">
          <mxGeometry relative="1" as="geometry">
            <mxPoint x="310" y="1080" as="targetPoint" />
          </mxGeometry>
        </mxCell>
        <mxCell id="fpDgBBtRukdDoOmINO04-25" value="Numbers er subtracted" style="rounded=0;whiteSpace=wrap;html=1;" vertex="1" parent="WIyWlLk6GJQsqaUBKTNV-1">
          <mxGeometry x="250" y="868" width="120" height="60" as="geometry" />
        </mxCell>
        <mxCell id="fpDgBBtRukdDoOmINO04-43" style="edgeStyle=orthogonalEdgeStyle;rounded=0;orthogonalLoop=1;jettySize=auto;html=1;exitX=0.5;exitY=1;exitDx=0;exitDy=0;" edge="1" parent="WIyWlLk6GJQsqaUBKTNV-1" source="fpDgBBtRukdDoOmINO04-26">
          <mxGeometry relative="1" as="geometry">
            <mxPoint x="180" y="1080" as="targetPoint" />
            <Array as="points">
              <mxPoint x="590" y="1080" />
            </Array>
          </mxGeometry>
        </mxCell>
        <mxCell id="fpDgBBtRukdDoOmINO04-26" value="Numbers er divided" style="rounded=0;whiteSpace=wrap;html=1;" vertex="1" parent="WIyWlLk6GJQsqaUBKTNV-1">
          <mxGeometry x="530" y="1010" width="120" height="60" as="geometry" />
        </mxCell>
        <mxCell id="fpDgBBtRukdDoOmINO04-34" style="edgeStyle=orthogonalEdgeStyle;rounded=0;orthogonalLoop=1;jettySize=auto;html=1;exitX=0.5;exitY=1;exitDx=0;exitDy=0;entryX=0.5;entryY=0;entryDx=0;entryDy=0;" edge="1" parent="WIyWlLk6GJQsqaUBKTNV-1" source="fpDgBBtRukdDoOmINO04-27" target="e0IcmRbNhsJ9LbPKQhqD-4">
          <mxGeometry relative="1" as="geometry">
            <mxPoint x="179.16666666666674" y="1180" as="targetPoint" />
          </mxGeometry>
        </mxCell>
        <mxCell id="fpDgBBtRukdDoOmINO04-27" value="Result" style="shape=parallelogram;perimeter=parallelogramPerimeter;whiteSpace=wrap;html=1;fixedSize=1;" vertex="1" parent="WIyWlLk6GJQsqaUBKTNV-1">
          <mxGeometry x="119" y="1090" width="120" height="60" as="geometry" />
        </mxCell>
        <mxCell id="fpDgBBtRukdDoOmINO04-38" style="edgeStyle=orthogonalEdgeStyle;rounded=0;orthogonalLoop=1;jettySize=auto;html=1;exitX=0.5;exitY=1;exitDx=0;exitDy=0;" edge="1" parent="WIyWlLk6GJQsqaUBKTNV-1" source="fpDgBBtRukdDoOmINO04-11">
          <mxGeometry relative="1" as="geometry">
            <mxPoint x="440" y="929" as="targetPoint" />
          </mxGeometry>
        </mxCell>
        <mxCell id="fpDgBBtRukdDoOmINO04-44" value="Yes" style="text;html=1;align=center;verticalAlign=middle;resizable=0;points=[];autosize=1;strokeColor=none;fillColor=none;" vertex="1" parent="WIyWlLk6GJQsqaUBKTNV-1">
          <mxGeometry x="590" y="970" width="40" height="30" as="geometry" />
        </mxCell>
        <mxCell id="fpDgBBtRukdDoOmINO04-46" value="Yes" style="text;html=1;align=center;verticalAlign=middle;resizable=0;points=[];autosize=1;strokeColor=none;fillColor=none;" vertex="1" parent="WIyWlLk6GJQsqaUBKTNV-1">
          <mxGeometry x="450" y="898" width="40" height="30" as="geometry" />
        </mxCell>
        <mxCell id="fpDgBBtRukdDoOmINO04-47" value="Yes" style="text;html=1;align=center;verticalAlign=middle;resizable=0;points=[];autosize=1;strokeColor=none;fillColor=none;" vertex="1" parent="WIyWlLk6GJQsqaUBKTNV-1">
          <mxGeometry x="320" y="830" width="40" height="30" as="geometry" />
        </mxCell>
        <mxCell id="fpDgBBtRukdDoOmINO04-48" value="Yes" style="text;html=1;align=center;verticalAlign=middle;resizable=0;points=[];autosize=1;strokeColor=none;fillColor=none;" vertex="1" parent="WIyWlLk6GJQsqaUBKTNV-1">
          <mxGeometry x="179" y="760" width="40" height="30" as="geometry" />
        </mxCell>
      </root>
    </mxGraphModel>
  </diagram>
</mxfile>
